<mxfile modified="2022-07-12T18:53:26.078Z" host="app.diagrams.net" agent="5.0 (Macintosh; Intel Mac OS X 10_15_7) AppleWebKit/605.1.15 (KHTML, like Gecko) Version/15.5 Safari/605.1.15" etag="GsbpUALKP8fFzpJq4fL5" version="20.0.4" type="github">
  <diagram id="l8hXMBHkgcEJcSW0mbfh" name="Page-1">
    <mxGraphModel dx="1892" dy="1244" grid="1" gridSize="10" guides="1" tooltips="1" connect="1" arrows="1" fold="1" page="1" pageScale="1" pageWidth="1169" pageHeight="827" math="0" shadow="0">
      <root>
        <mxCell id="0" />
        <mxCell id="1" parent="0" />
        <mxCell id="LknhTWi8hgB9BkkPIfUL-1" value="PC" style="shape=mxgraph.cisco.computers_and_peripherals.pc;sketch=0;html=1;pointerEvents=1;dashed=0;fillColor=#036897;strokeColor=#ffffff;strokeWidth=2;verticalLabelPosition=bottom;verticalAlign=top;align=center;outlineConnect=0;" vertex="1" parent="1">
          <mxGeometry x="446" y="160" width="78" height="70" as="geometry" />
        </mxCell>
        <mxCell id="LknhTWi8hgB9BkkPIfUL-5" value="Laptop" style="shape=mxgraph.cisco.computers_and_peripherals.laptop;sketch=0;html=1;pointerEvents=1;dashed=0;fillColor=#036897;strokeColor=#ffffff;strokeWidth=2;verticalLabelPosition=bottom;verticalAlign=top;align=center;outlineConnect=0;" vertex="1" parent="1">
          <mxGeometry x="660" y="414" width="90" height="61" as="geometry" />
        </mxCell>
        <mxCell id="LknhTWi8hgB9BkkPIfUL-20" style="edgeStyle=orthogonalEdgeStyle;rounded=0;orthogonalLoop=1;jettySize=auto;html=1;exitX=0.5;exitY=0.98;exitDx=0;exitDy=0;exitPerimeter=0;entryX=0.5;entryY=0.32;entryDx=0;entryDy=0;entryPerimeter=0;" edge="1" parent="1" source="LknhTWi8hgB9BkkPIfUL-6" target="LknhTWi8hgB9BkkPIfUL-7">
          <mxGeometry relative="1" as="geometry" />
        </mxCell>
        <mxCell id="LknhTWi8hgB9BkkPIfUL-21" style="edgeStyle=orthogonalEdgeStyle;rounded=0;orthogonalLoop=1;jettySize=auto;html=1;exitX=0;exitY=0.98;exitDx=0;exitDy=0;exitPerimeter=0;" edge="1" parent="1" source="LknhTWi8hgB9BkkPIfUL-6" target="LknhTWi8hgB9BkkPIfUL-1">
          <mxGeometry relative="1" as="geometry" />
        </mxCell>
        <mxCell id="LknhTWi8hgB9BkkPIfUL-22" style="edgeStyle=orthogonalEdgeStyle;rounded=0;orthogonalLoop=1;jettySize=auto;html=1;exitX=0;exitY=0.5;exitDx=0;exitDy=0;exitPerimeter=0;entryX=0.5;entryY=0;entryDx=0;entryDy=0;entryPerimeter=0;" edge="1" parent="1" source="LknhTWi8hgB9BkkPIfUL-6" target="LknhTWi8hgB9BkkPIfUL-10">
          <mxGeometry relative="1" as="geometry" />
        </mxCell>
        <mxCell id="LknhTWi8hgB9BkkPIfUL-30" style="edgeStyle=orthogonalEdgeStyle;rounded=0;orthogonalLoop=1;jettySize=auto;html=1;exitX=0.16;exitY=0.23;exitDx=0;exitDy=0;exitPerimeter=0;entryX=0.5;entryY=0.01;entryDx=0;entryDy=0;entryPerimeter=0;" edge="1" parent="1" source="LknhTWi8hgB9BkkPIfUL-6" target="LknhTWi8hgB9BkkPIfUL-29">
          <mxGeometry relative="1" as="geometry" />
        </mxCell>
        <mxCell id="LknhTWi8hgB9BkkPIfUL-6" value="Router" style="shape=mxgraph.cisco.switches.workgroup_switch;sketch=0;html=1;pointerEvents=1;dashed=0;fillColor=#036897;strokeColor=#ffffff;strokeWidth=2;verticalLabelPosition=bottom;verticalAlign=top;align=center;outlineConnect=0;" vertex="1" parent="1">
          <mxGeometry x="610" y="110" width="101" height="50" as="geometry" />
        </mxCell>
        <mxCell id="LknhTWi8hgB9BkkPIfUL-23" style="edgeStyle=orthogonalEdgeStyle;rounded=0;orthogonalLoop=1;jettySize=auto;html=1;exitX=0.12;exitY=0.93;exitDx=0;exitDy=0;exitPerimeter=0;entryX=0.5;entryY=0;entryDx=0;entryDy=0;entryPerimeter=0;" edge="1" parent="1" source="LknhTWi8hgB9BkkPIfUL-7" target="LknhTWi8hgB9BkkPIfUL-8">
          <mxGeometry relative="1" as="geometry" />
        </mxCell>
        <mxCell id="LknhTWi8hgB9BkkPIfUL-24" style="edgeStyle=orthogonalEdgeStyle;rounded=0;orthogonalLoop=1;jettySize=auto;html=1;exitX=0.5;exitY=1;exitDx=0;exitDy=0;exitPerimeter=0;entryX=0.5;entryY=0;entryDx=0;entryDy=0;entryPerimeter=0;" edge="1" parent="1" source="LknhTWi8hgB9BkkPIfUL-7" target="LknhTWi8hgB9BkkPIfUL-9">
          <mxGeometry relative="1" as="geometry" />
        </mxCell>
        <mxCell id="LknhTWi8hgB9BkkPIfUL-25" style="edgeStyle=orthogonalEdgeStyle;rounded=0;orthogonalLoop=1;jettySize=auto;html=1;exitX=0.88;exitY=0.93;exitDx=0;exitDy=0;exitPerimeter=0;" edge="1" parent="1" source="LknhTWi8hgB9BkkPIfUL-7" target="LknhTWi8hgB9BkkPIfUL-5">
          <mxGeometry relative="1" as="geometry" />
        </mxCell>
        <mxCell id="LknhTWi8hgB9BkkPIfUL-7" value="WiFi Router" style="shape=mxgraph.cisco.routers.wireless_router;sketch=0;html=1;pointerEvents=1;dashed=0;fillColor=#036897;strokeColor=#ffffff;strokeWidth=2;verticalLabelPosition=bottom;verticalAlign=top;align=center;outlineConnect=0;" vertex="1" parent="1">
          <mxGeometry x="621.5" y="250" width="78" height="77" as="geometry" />
        </mxCell>
        <mxCell id="LknhTWi8hgB9BkkPIfUL-8" value="Phone" style="shape=mxgraph.cisco.modems_and_phones.cell_phone;sketch=0;html=1;pointerEvents=1;dashed=0;fillColor=#036897;strokeColor=#ffffff;strokeWidth=2;verticalLabelPosition=bottom;verticalAlign=top;align=center;outlineConnect=0;" vertex="1" parent="1">
          <mxGeometry x="490" y="414" width="34" height="58" as="geometry" />
        </mxCell>
        <mxCell id="LknhTWi8hgB9BkkPIfUL-9" value="Phone" style="shape=mxgraph.cisco.modems_and_phones.cell_phone;sketch=0;html=1;pointerEvents=1;dashed=0;fillColor=#036897;strokeColor=#ffffff;strokeWidth=2;verticalLabelPosition=bottom;verticalAlign=top;align=center;outlineConnect=0;" vertex="1" parent="1">
          <mxGeometry x="568" y="414" width="34" height="58" as="geometry" />
        </mxCell>
        <mxCell id="LknhTWi8hgB9BkkPIfUL-10" value="Fileserver" style="shape=mxgraph.cisco.servers.fileserver;sketch=0;html=1;pointerEvents=1;dashed=0;fillColor=#036897;strokeColor=#ffffff;strokeWidth=2;verticalLabelPosition=bottom;verticalAlign=top;align=center;outlineConnect=0;" vertex="1" parent="1">
          <mxGeometry x="360" y="164" width="43" height="62" as="geometry" />
        </mxCell>
        <mxCell id="LknhTWi8hgB9BkkPIfUL-15" style="edgeStyle=orthogonalEdgeStyle;rounded=0;orthogonalLoop=1;jettySize=auto;html=1;exitX=0;exitY=0.5;exitDx=0;exitDy=0;exitPerimeter=0;entryX=0.5;entryY=0;entryDx=0;entryDy=0;entryPerimeter=0;" edge="1" parent="1" source="LknhTWi8hgB9BkkPIfUL-11" target="LknhTWi8hgB9BkkPIfUL-6">
          <mxGeometry relative="1" as="geometry" />
        </mxCell>
        <mxCell id="LknhTWi8hgB9BkkPIfUL-11" value="VPN Gateway" style="shape=mxgraph.cisco.hubs_and_gateways.vpn_gateway;sketch=0;html=1;pointerEvents=1;dashed=0;fillColor=#036897;strokeColor=#ffffff;strokeWidth=2;verticalLabelPosition=bottom;verticalAlign=top;align=center;outlineConnect=0;" vertex="1" parent="1">
          <mxGeometry x="760" y="40" width="91" height="48" as="geometry" />
        </mxCell>
        <mxCell id="LknhTWi8hgB9BkkPIfUL-28" style="edgeStyle=orthogonalEdgeStyle;rounded=0;orthogonalLoop=1;jettySize=auto;html=1;exitX=1;exitY=0.5;exitDx=0;exitDy=0;exitPerimeter=0;entryX=0.5;entryY=0;entryDx=0;entryDy=0;entryPerimeter=0;" edge="1" parent="1" source="LknhTWi8hgB9BkkPIfUL-12" target="LknhTWi8hgB9BkkPIfUL-18">
          <mxGeometry relative="1" as="geometry" />
        </mxCell>
        <mxCell id="LknhTWi8hgB9BkkPIfUL-12" value="VPN Gateway" style="shape=mxgraph.cisco.hubs_and_gateways.vpn_gateway;sketch=0;html=1;pointerEvents=1;dashed=0;fillColor=#036897;strokeColor=#ffffff;strokeWidth=2;verticalLabelPosition=bottom;verticalAlign=top;align=center;outlineConnect=0;" vertex="1" parent="1">
          <mxGeometry x="1160" y="40" width="91" height="48" as="geometry" />
        </mxCell>
        <mxCell id="LknhTWi8hgB9BkkPIfUL-26" style="edgeStyle=orthogonalEdgeStyle;rounded=0;orthogonalLoop=1;jettySize=auto;html=1;exitX=0.2;exitY=0.17;exitDx=0;exitDy=0;exitPerimeter=0;entryX=1;entryY=0.5;entryDx=0;entryDy=0;entryPerimeter=0;" edge="1" parent="1" source="LknhTWi8hgB9BkkPIfUL-13" target="LknhTWi8hgB9BkkPIfUL-11">
          <mxGeometry relative="1" as="geometry" />
        </mxCell>
        <mxCell id="LknhTWi8hgB9BkkPIfUL-27" style="edgeStyle=orthogonalEdgeStyle;rounded=0;orthogonalLoop=1;jettySize=auto;html=1;exitX=0.89;exitY=0.2;exitDx=0;exitDy=0;exitPerimeter=0;entryX=0;entryY=0.5;entryDx=0;entryDy=0;entryPerimeter=0;" edge="1" parent="1" source="LknhTWi8hgB9BkkPIfUL-13" target="LknhTWi8hgB9BkkPIfUL-12">
          <mxGeometry relative="1" as="geometry" />
        </mxCell>
        <mxCell id="LknhTWi8hgB9BkkPIfUL-13" value="Internet" style="shape=mxgraph.cisco.storage.cloud;sketch=0;html=1;pointerEvents=1;dashed=0;fillColor=#036897;strokeColor=#ffffff;strokeWidth=2;verticalLabelPosition=bottom;verticalAlign=top;align=center;outlineConnect=0;" vertex="1" parent="1">
          <mxGeometry x="850" y="120" width="310" height="168" as="geometry" />
        </mxCell>
        <mxCell id="LknhTWi8hgB9BkkPIfUL-32" style="edgeStyle=orthogonalEdgeStyle;rounded=0;orthogonalLoop=1;jettySize=auto;html=1;exitX=0.5;exitY=0.98;exitDx=0;exitDy=0;exitPerimeter=0;" edge="1" parent="1" source="LknhTWi8hgB9BkkPIfUL-18" target="LknhTWi8hgB9BkkPIfUL-31">
          <mxGeometry relative="1" as="geometry" />
        </mxCell>
        <mxCell id="LknhTWi8hgB9BkkPIfUL-34" style="edgeStyle=orthogonalEdgeStyle;rounded=0;orthogonalLoop=1;jettySize=auto;html=1;exitX=0.98;exitY=0.5;exitDx=0;exitDy=0;exitPerimeter=0;" edge="1" parent="1" source="LknhTWi8hgB9BkkPIfUL-18" target="LknhTWi8hgB9BkkPIfUL-33">
          <mxGeometry relative="1" as="geometry" />
        </mxCell>
        <mxCell id="LknhTWi8hgB9BkkPIfUL-18" value="Router" style="shape=mxgraph.cisco.switches.workgroup_switch;sketch=0;html=1;pointerEvents=1;dashed=0;fillColor=#036897;strokeColor=#ffffff;strokeWidth=2;verticalLabelPosition=bottom;verticalAlign=top;align=center;outlineConnect=0;" vertex="1" parent="1">
          <mxGeometry x="1300" y="78" width="101" height="50" as="geometry" />
        </mxCell>
        <mxCell id="LknhTWi8hgB9BkkPIfUL-29" value="Videocamera" style="shape=mxgraph.cisco.computers_and_peripherals.video_camera;sketch=0;html=1;pointerEvents=1;dashed=0;fillColor=#036897;strokeColor=#ffffff;strokeWidth=2;verticalLabelPosition=bottom;verticalAlign=top;align=center;outlineConnect=0;" vertex="1" parent="1">
          <mxGeometry x="250" y="132" width="67" height="98" as="geometry" />
        </mxCell>
        <mxCell id="LknhTWi8hgB9BkkPIfUL-31" value="PC" style="shape=mxgraph.cisco.computers_and_peripherals.pc;sketch=0;html=1;pointerEvents=1;dashed=0;fillColor=#036897;strokeColor=#ffffff;strokeWidth=2;verticalLabelPosition=bottom;verticalAlign=top;align=center;outlineConnect=0;" vertex="1" parent="1">
          <mxGeometry x="1311.5" y="169" width="78" height="70" as="geometry" />
        </mxCell>
        <mxCell id="LknhTWi8hgB9BkkPIfUL-33" value="Videocamera" style="shape=mxgraph.cisco.computers_and_peripherals.video_camera;sketch=0;html=1;pointerEvents=1;dashed=0;fillColor=#036897;strokeColor=#ffffff;strokeWidth=2;verticalLabelPosition=bottom;verticalAlign=top;align=center;outlineConnect=0;" vertex="1" parent="1">
          <mxGeometry x="1220" y="190" width="67" height="98" as="geometry" />
        </mxCell>
        <mxCell id="LknhTWi8hgB9BkkPIfUL-37" value="&lt;font style=&quot;font-size: 18px;&quot;&gt;HOME&lt;/font&gt;" style="whiteSpace=wrap;html=1;fillColor=none;dashed=1;strokeWidth=3;" vertex="1" parent="1">
          <mxGeometry x="230" y="30" width="630" height="510" as="geometry" />
        </mxCell>
        <mxCell id="LknhTWi8hgB9BkkPIfUL-39" value="&lt;font size=&quot;4&quot;&gt;COUNTRY HOUSE&lt;/font&gt;" style="whiteSpace=wrap;html=1;fillColor=none;dashed=1;strokeWidth=3;" vertex="1" parent="1">
          <mxGeometry x="1150" y="33.5" width="630" height="510" as="geometry" />
        </mxCell>
      </root>
    </mxGraphModel>
  </diagram>
</mxfile>
